<?xml version="1.0" encoding="UTF-8" standalone="no"?>
<!-- Created with Inkscape (http://www.inkscape.org/) -->

<svg
   width="16.141338mm"
   height="3.222625mm"
   viewBox="0 0 16.141338 3.2226251"
   version="1.1"
   id="svg1"
   inkscape:version="1.4 (e7c3feb100, 2024-10-09)"
   sodipodi:docname="sleepapp.svg"
   xmlns:inkscape="http://www.inkscape.org/namespaces/inkscape"
   xmlns:sodipodi="http://sodipodi.sourceforge.net/DTD/sodipodi-0.dtd"
   xmlns:xlink="http://www.w3.org/1999/xlink"
   xmlns="http://www.w3.org/2000/svg"
   xmlns:svg="http://www.w3.org/2000/svg">
  <sodipodi:namedview
     id="namedview1"
     pagecolor="#ffffff"
     bordercolor="#000000"
     borderopacity="0.25"
     inkscape:showpageshadow="2"
     inkscape:pageopacity="0.0"
     inkscape:pagecheckerboard="0"
     inkscape:deskcolor="#d1d1d1"
     inkscape:document-units="mm"
     inkscape:zoom="11.901796"
     inkscape:cx="33.104248"
     inkscape:cy="9.3683342"
     inkscape:window-width="1920"
     inkscape:window-height="1044"
     inkscape:window-x="0"
     inkscape:window-y="36"
     inkscape:window-maximized="1"
     inkscape:current-layer="layer1">
    <inkscape:page
       x="0"
       y="0"
       width="16.141338"
       height="3.222625"
       id="page2"
       margin="0"
       bleed="0" />
  </sodipodi:namedview>
  <defs
     id="defs1">
    <linearGradient
       id="linearGradient5"
       inkscape:collect="always">
      <stop
         style="stop-color:#6329aa;stop-opacity:1;"
         offset="0"
         id="stop7" />
      <stop
         style="stop-color:#3e7adc;stop-opacity:1;"
         offset="0.99989998"
         id="stop5" />
    </linearGradient>
    <linearGradient
       inkscape:collect="always"
       xlink:href="#linearGradient5"
       id="linearGradient6"
       x1="72.103615"
       y1="67.039299"
       x2="88.244957"
       y2="67.039299"
       gradientUnits="userSpaceOnUse"
       spreadMethod="pad" />
  </defs>
  <g
     inkscape:label="Layer 1"
     inkscape:groupmode="layer"
     id="layer1"
     transform="translate(-72.103615,-65.427986)">
    <path
       style="font-weight:bold;font-size:3.175px;font-family:Comfortaa;-inkscape-font-specification:'Comfortaa Bold';fill:url(#linearGradient6);stroke-width:0.5;stroke-linecap:round"
       d="m 72.849383,67.920361 c 0.447675,0 0.682625,-0.231775 0.682625,-0.5207 0,-0.250825 -0.15875,-0.4191 -0.635,-0.51435 -0.3429,-0.06985 -0.409575,-0.1397 -0.409575,-0.257175 0,-0.12065 0.14605,-0.187325 0.333375,-0.187325 0.161925,0 0.276225,0.03175 0.384175,0.13335 0.0635,0.06032 0.168275,0.08255 0.238125,0.03493 0.06668,-0.0508 0.06985,-0.130175 0.0127,-0.200025 -0.127,-0.155575 -0.34925,-0.250825 -0.62865,-0.250825 -0.32385,0 -0.650875,0.155575 -0.650875,0.479425 0,0.244475 0.180975,0.4191 0.6096,0.50165 0.3302,0.06032 0.434975,0.1524 0.4318,0.2794 -0.0032,0.127 -0.136525,0.2159 -0.381,0.2159 -0.193675,0 -0.365125,-0.08573 -0.43815,-0.1651 -0.06033,-0.0635 -0.149225,-0.07937 -0.231775,-0.0127 -0.07303,0.05715 -0.08572,0.155575 -0.02223,0.22225 0.1397,0.1397 0.409575,0.2413 0.70485,0.2413 z m 1.504948,-0.0127 h 0.0063 c 0.127,0 0.2159,-0.06668 0.2159,-0.15875 0,-0.09208 -0.06033,-0.15875 -0.142875,-0.15875 h -0.07937 c -0.09208,0 -0.15875,-0.111125 -0.15875,-0.269875 v -1.73355 c 0,-0.09208 -0.06668,-0.15875 -0.15875,-0.15875 -0.09208,0 -0.15875,0.06667 -0.15875,0.15875 v 1.73355 c 0,0.3429 0.19685,0.587375 0.47625,0.587375 z m 1.260471,0.0127 c 0.193675,0 0.4318,-0.07937 0.574675,-0.193675 0.06985,-0.05397 0.06668,-0.1397 -0.0063,-0.2032 -0.05397,-0.04445 -0.136525,-0.04445 -0.200025,0.0032 -0.08572,0.0635 -0.238125,0.12065 -0.3683,0.12065 -0.320675,0 -0.561975,-0.2032 -0.6096,-0.4953 h 1.2065 c 0.08572,0 0.14605,-0.05715 0.14605,-0.1397 0,-0.50165 -0.295275,-0.854075 -0.790575,-0.854075 -0.50165,0 -0.85725,0.365125 -0.85725,0.88265 0,0.51435 0.37465,0.879475 0.904875,0.879475 z m -0.04762,-1.489075 c 0.28575,0 0.460375,0.193675 0.498475,0.466725 h -1.057275 c 0.04763,-0.276225 0.244475,-0.466725 0.5588,-0.466725 z m 1.955799,1.489075 c 0.193675,0 0.4318,-0.07937 0.574675,-0.193675 0.06985,-0.05397 0.06668,-0.1397 -0.0063,-0.2032 -0.05398,-0.04445 -0.136525,-0.04445 -0.200025,0.0032 -0.08573,0.0635 -0.238125,0.12065 -0.3683,0.12065 -0.320675,0 -0.561975,-0.2032 -0.6096,-0.4953 h 1.2065 c 0.08572,0 0.14605,-0.05715 0.14605,-0.1397 0,-0.50165 -0.295275,-0.854075 -0.790575,-0.854075 -0.50165,0 -0.85725,0.365125 -0.85725,0.88265 0,0.51435 0.37465,0.879475 0.904875,0.879475 z m -0.04762,-1.489075 c 0.28575,0 0.460375,0.193675 0.498475,0.466725 h -1.057275 c 0.04762,-0.276225 0.244475,-0.466725 0.5588,-0.466725 z m 1.365251,2.219325 c 0.09525,0 0.161925,-0.06668 0.161925,-0.161925 v -0.85725 c 0.14605,0.1778 0.36195,0.288925 0.612775,0.288925 0.46355,0 0.8128,-0.377825 0.8128,-0.879475 0,-0.50165 -0.377825,-0.88265 -0.8763,-0.88265 -0.4953,0 -0.86995,0.381 -0.873125,0.88265 v 1.4478 c 0,0.09525 0.06668,0.161925 0.161925,0.161925 z m 0.7112,-1.016 c -0.320675,0 -0.561975,-0.254 -0.561975,-0.593725 0,-0.339725 0.2413,-0.5969 0.561975,-0.5969 0.320675,0 0.56515,0.257175 0.56515,0.5969 0,0.339725 -0.244475,0.593725 -0.56515,0.593725 z m 1.349371,-0.434975 h 0.708025 c 0.09207,0 0.15875,-0.06668 0.15875,-0.15875 0,-0.09525 -0.06668,-0.161925 -0.15875,-0.161925 h -0.708025 c -0.09207,0 -0.161925,0.06667 -0.161925,0.161925 0,0.09207 0.06985,0.15875 0.161925,0.15875 z m 1.943102,0.720725 c 0.250825,0 0.466725,-0.111125 0.612775,-0.288925 v 0.117475 c 0,0.09207 0.06985,0.161925 0.161925,0.161925 0.09207,0 0.161925,-0.06985 0.161925,-0.161925 v -0.708025 c -0.0032,-0.50165 -0.377825,-0.88265 -0.873125,-0.88265 -0.498475,0 -0.8763,0.381 -0.8763,0.88265 0,0.50165 0.34925,0.879475 0.8128,0.879475 z m 0.0635,-0.28575 c -0.320675,0 -0.56515,-0.254 -0.56515,-0.593725 0,-0.339725 0.244475,-0.5969 0.56515,-0.5969 0.320675,0 0.561975,0.257175 0.561975,0.5969 0,0.339725 -0.2413,0.593725 -0.561975,0.593725 z m 1.517648,1.016 c 0.09525,0 0.161925,-0.06668 0.161925,-0.161925 v -0.85725 c 0.14605,0.1778 0.36195,0.288925 0.612775,0.288925 0.46355,0 0.8128,-0.377825 0.8128,-0.879475 0,-0.50165 -0.377825,-0.88265 -0.8763,-0.88265 -0.4953,0 -0.86995,0.381 -0.873125,0.88265 v 1.4478 c 0,0.09525 0.06668,0.161925 0.161925,0.161925 z m 0.7112,-1.016 c -0.320675,0 -0.561975,-0.254 -0.561975,-0.593725 0,-0.339725 0.2413,-0.5969 0.561975,-0.5969 0.320675,0 0.56515,0.257175 0.56515,0.5969 0,0.339725 -0.244475,0.593725 -0.56515,0.593725 z m 1.520822,1.016 c 0.09525,0 0.161925,-0.06668 0.161925,-0.161925 v -0.85725 c 0.14605,0.1778 0.36195,0.288925 0.612775,0.288925 0.46355,0 0.8128,-0.377825 0.8128,-0.879475 0,-0.50165 -0.377825,-0.88265 -0.8763,-0.88265 -0.4953,0 -0.86995,0.381 -0.873125,0.88265 v 1.4478 c 0,0.09525 0.06668,0.161925 0.161925,0.161925 z m 0.7112,-1.016 c -0.320675,0 -0.561975,-0.254 -0.561975,-0.593725 0,-0.339725 0.2413,-0.5969 0.561975,-0.5969 0.320675,0 0.56515,0.257175 0.56515,0.5969 0,0.339725 -0.244475,0.593725 -0.56515,0.593725 z"
       id="text1"
       aria-label="sleep-app" />
  </g>
</svg>
