<?xml version="1.0" encoding="UTF-8" standalone="no"?>
<!-- Created with Inkscape (http://www.inkscape.org/) -->

<svg
   width="26.702503mm"
   height="26.703135mm"
   viewBox="0 0 26.702503 26.703135"
   version="1.1"
   id="svg1"
   xml:space="preserve"
   inkscape:version="1.4 (e7c3feb100, 2024-10-09)"
   sodipodi:docname="stars.svg"
   xmlns:inkscape="http://www.inkscape.org/namespaces/inkscape"
   xmlns:sodipodi="http://sodipodi.sourceforge.net/DTD/sodipodi-0.dtd"
   xmlns:xlink="http://www.w3.org/1999/xlink"
   xmlns="http://www.w3.org/2000/svg"
   xmlns:svg="http://www.w3.org/2000/svg"><sodipodi:namedview
     id="namedview1"
     pagecolor="#ffffff"
     bordercolor="#000000"
     borderopacity="0.25"
     inkscape:showpageshadow="2"
     inkscape:pageopacity="0.0"
     inkscape:pagecheckerboard="0"
     inkscape:deskcolor="#d1d1d1"
     inkscape:document-units="mm"
     inkscape:zoom="2.1039601"
     inkscape:cx="390.21652"
     inkscape:cy="345.30122"
     inkscape:window-width="1465"
     inkscape:window-height="1036"
     inkscape:window-x="0"
     inkscape:window-y="36"
     inkscape:window-maximized="1"
     inkscape:current-layer="layer1"><inkscape:page
       x="0"
       y="0"
       width="26.702503"
       height="26.703135"
       id="page2"
       margin="0"
       bleed="0" /></sodipodi:namedview><defs
     id="defs1"><linearGradient
       id="linearGradient1"
       inkscape:collect="always"><stop
         style="stop-color:#6329aa;stop-opacity:1;"
         offset="0"
         id="stop1" /><stop
         style="stop-color:#3e7adc;stop-opacity:1;"
         offset="1"
         id="stop2" /></linearGradient><linearGradient
       inkscape:collect="always"
       xlink:href="#linearGradient1"
       id="linearGradient2"
       x1="0.0018877075"
       y1="0.0027872827"
       x2="519.25916"
       y2="513.99884"
       gradientUnits="userSpaceOnUse" /><linearGradient
       inkscape:collect="always"
       xlink:href="#linearGradient1"
       id="linearGradient3"
       gradientUnits="userSpaceOnUse"
       x1="0.0018877075"
       y1="0.0027872827"
       x2="519.25916"
       y2="513.99884" /><linearGradient
       inkscape:collect="always"
       xlink:href="#linearGradient1"
       id="linearGradient4"
       gradientUnits="userSpaceOnUse"
       x1="0.0018877075"
       y1="0.0027872827"
       x2="519.25916"
       y2="513.99884" /><linearGradient
       inkscape:collect="always"
       xlink:href="#linearGradient1"
       id="linearGradient5"
       gradientUnits="userSpaceOnUse"
       x1="0.0018877075"
       y1="0.0027872827"
       x2="519.25916"
       y2="513.99884" /></defs><g
     inkscape:label="Layer 1"
     inkscape:groupmode="layer"
     id="layer1"
     transform="translate(-92.746656,-84.015096)"><g
       style="fill:url(#linearGradient2);fill-opacity:1"
       id="g1"
       transform="matrix(0.05215482,0,0,0.05215482,92.746569,84.014953)"><path
         d="M 208,512 A 24.84,24.84 0 0 1 184.66,496 L 144.82,392.4 a 16.06,16.06 0 0 0 -9.19,-9.19 L 32,343.34 a 25,25 0 0 1 0,-46.68 l 103.6,-39.84 a 16.06,16.06 0 0 0 9.19,-9.19 L 184.66,144 a 25,25 0 0 1 46.68,0 l 39.84,103.6 a 16.06,16.06 0 0 0 9.19,9.19 l 103,39.63 a 25.49,25.49 0 0 1 16.63,24.1 24.82,24.82 0 0 1 -16,22.82 l -103.6,39.84 a 16.06,16.06 0 0 0 -9.19,9.19 L 231.34,496 A 24.84,24.84 0 0 1 208,512 Z m 66.85,-254.84 z"
         id="path1"
         style="fill:url(#linearGradient3);fill-opacity:1" /><path
         d="M 88,176 A 14.67,14.67 0 0 1 74.31,166.6 L 57.45,122.76 a 7.28,7.28 0 0 0 -4.21,-4.21 L 9.4,101.69 a 14.67,14.67 0 0 1 0,-27.38 L 53.24,57.45 a 7.31,7.31 0 0 0 4.21,-4.21 L 74.16,9.79 A 15,15 0 0 1 86.23,0.11 14.67,14.67 0 0 1 101.69,9.4 l 16.86,43.84 a 7.31,7.31 0 0 0 4.21,4.21 l 43.84,16.86 a 14.67,14.67 0 0 1 0,27.38 l -43.84,16.86 a 7.28,7.28 0 0 0 -4.21,4.21 L 101.69,166.6 A 14.67,14.67 0 0 1 88,176 Z"
         id="path2"
         style="fill:url(#linearGradient4);fill-opacity:1" /><path
         d="m 400,256 a 16,16 0 0 1 -14.93,-10.26 l -22.84,-59.37 a 8,8 0 0 0 -4.6,-4.6 l -59.37,-22.84 a 16,16 0 0 1 0,-29.86 l 59.37,-22.84 a 8,8 0 0 0 4.6,-4.6 L 384.9,42.68 a 16.45,16.45 0 0 1 13.17,-10.57 16,16 0 0 1 16.86,10.15 l 22.84,59.37 a 8,8 0 0 0 4.6,4.6 l 59.37,22.84 a 16,16 0 0 1 0,29.86 l -59.37,22.84 a 8,8 0 0 0 -4.6,4.6 l -22.84,59.37 A 16,16 0 0 1 400,256 Z"
         id="path3"
         style="fill:url(#linearGradient5);fill-opacity:1" /></g></g></svg>
